# xmcd
#
# Track frame offsets: 
#        300
#        34119
#        50972
#        69464
#        96337
#        116416
#        134273
#        164211
#        186033
#        213871
#        230690
#        246504
#        274598
#        288131
#        314623
#
# Disc length: 4417 seconds
#
# Revision: 0
# Processed by: cddbd v1.5.2PL0 Copyright (c) Steve Scherf et al.
# Submitted via: ExactAudioCopy v0.95b4
#
DISCID=eb113d0f
DTITLE=Tom Waits - El Paso, TX June 20th 2008 Disc 1
DYEAR=2008
DGENRE=Blues
TTITLE0=Lucinda
TTITLE1=Way Down In The Hole
TTITLE2=Falling Down
TTITLE3=Chocolate Jesus
TTITLE4=Singapore
TTITLE5=Fannin Street
TTITLE6=Get Behind The Mule
TTITLE7=Trampled Rose
TTITLE8=Metropolitan Glide
TTITLE9=The Other Side Of The World
TTITLE10=God's Away On Business
TTITLE11=Hoist That Rag
TTITLE12=Key To The City Presentation
TTITLE13=Lucky Day
TTITLE14=House Where No One Lives
EXTD=
EXTT0=
EXTT1=
EXTT2=
EXTT3=
EXTT4=
EXTT5=
EXTT6=
EXTT7=
EXTT8=
EXTT9=
EXTT10=
EXTT11=
EXTT12=
EXTT13=
EXTT14=
PLAYORDER=
